<svg height="958" width="720" xmlns="http://www.w3.org/2000/svg">
<rect height="958" fill="#555" width="720"></rect>
<text fill="#7f7" font-family="Courier New" font-size="12" xml:space="preserve">
<tspan x="10" y="26">9 megabytes installed</tspan>
<tspan x="10" y="42"></tspan>
<tspan x="10" y="58">node_modules</tspan>
<tspan x="10" y="74">└─┬ cssstats@3.0.0 </tspan>
<tspan x="10" y="90">  ├── bytes@2.5.0 </tspan>
<tspan x="10" y="106">  ├─┬ css-selector-tokenizer@0.7.0 </tspan>
<tspan x="10" y="122">  │ ├── cssesc@0.1.0 </tspan>
<tspan x="10" y="138">  │ ├── fastparse@1.1.1 </tspan>
<tspan x="10" y="154">  │ └─┬ regexpu-core@1.0.0 </tspan>
<tspan x="10" y="170">  │   ├── regenerate@1.3.2 </tspan>
<tspan x="10" y="186">  │   ├── regjsgen@0.2.0 </tspan>
<tspan x="10" y="202">  │   └─┬ regjsparser@0.1.5 </tspan>
<tspan x="10" y="218">  │     └── jsesc@0.5.0 </tspan>
<tspan x="10" y="234">  ├─┬ css-shorthand-expand@1.1.0 </tspan>
<tspan x="10" y="250">  │ ├── css-color-names@0.0.1 </tspan>
<tspan x="10" y="266">  │ ├── css-url-regex@0.0.1 </tspan>
<tspan x="10" y="282">  │ ├── hex-color-regex@1.0.3 </tspan>
<tspan x="10" y="298">  │ ├── hsl-regex@1.0.0 </tspan>
<tspan x="10" y="314">  │ ├── hsla-regex@1.0.0 </tspan>
<tspan x="10" y="330">  │ ├── map-obj@1.0.1 </tspan>
<tspan x="10" y="346">  │ ├── repeat-element@1.1.2 </tspan>
<tspan x="10" y="362">  │ ├── rgb-regex@1.0.1 </tspan>
<tspan x="10" y="378">  │ ├── rgba-regex@1.0.0 </tspan>
<tspan x="10" y="394">  │ └── xtend@4.0.1 </tspan>
<tspan x="10" y="410">  ├─┬ gzip-size@3.0.0 </tspan>
<tspan x="10" y="426">  │ └── duplexer@0.1.1 </tspan>
<tspan x="10" y="442">  ├── has-class-selector@1.0.0 </tspan>
<tspan x="10" y="458">  ├─┬ has-element-selector@1.0.0 </tspan>
<tspan x="10" y="474">  │ └── css-selector-tokenizer@0.5.4 </tspan>
<tspan x="10" y="490">  ├── has-id-selector@1.0.0 </tspan>
<tspan x="10" y="506">  ├─┬ has-pseudo-class@1.0.1 </tspan>
<tspan x="10" y="522">  │ └── pseudo-classes@0.0.1 </tspan>
<tspan x="10" y="538">  ├─┬ has-pseudo-element@1.0.0 </tspan>
<tspan x="10" y="554">  │ └── pseudo-elements@1.0.0 </tspan>
<tspan x="10" y="570">  ├─┬ is-blank@1.1.0 </tspan>
<tspan x="10" y="586">  │ ├── is-empty@0.0.1 </tspan>
<tspan x="10" y="602">  │ └── is-whitespace@0.3.0 </tspan>
<tspan x="10" y="618">  ├─┬ is-css-shorthand@1.0.1 </tspan>
<tspan x="10" y="634">  │ └── css-shorthand-properties@1.0.0 </tspan>
<tspan x="10" y="650">  ├─┬ is-present@1.0.0 </tspan>
<tspan x="10" y="666">  │ └── is-blank@1.0.0 </tspan>
<tspan x="10" y="682">  ├─┬ is-vendor-prefixed@0.0.1 </tspan>
<tspan x="10" y="698">  │ └── vendor-prefixes@0.0.1 </tspan>
<tspan x="10" y="714">  ├── lodash@4.17.4 </tspan>
<tspan x="10" y="730">  ├─┬ postcss@5.2.17 </tspan>
<tspan x="10" y="746">  │ ├─┬ chalk@1.1.3 </tspan>
<tspan x="10" y="762">  │ │ ├── ansi-styles@2.2.1 </tspan>
<tspan x="10" y="778">  │ │ ├── escape-string-regexp@1.0.5 </tspan>
<tspan x="10" y="794">  │ │ ├─┬ has-ansi@2.0.0 </tspan>
<tspan x="10" y="810">  │ │ │ └── ansi-regex@2.1.1 </tspan>
<tspan x="10" y="826">  │ │ ├── strip-ansi@3.0.1 </tspan>
<tspan x="10" y="842">  │ │ └── supports-color@2.0.0 </tspan>
<tspan x="10" y="858">  │ ├── js-base64@2.1.9 </tspan>
<tspan x="10" y="874">  │ ├── source-map@0.5.6 </tspan>
<tspan x="10" y="890">  │ └─┬ supports-color@3.2.3 </tspan>
<tspan x="10" y="906">  │   └── has-flag@1.0.0 </tspan>
<tspan x="10" y="922">  ├── postcss-safe-parser@2.0.1 </tspan>
<tspan x="10" y="938">  └── specificity@0.3.0</tspan>
</text>
</svg>
